<?xml version="1.0" encoding="UTF-8" standalone="no"?>
<!-- Created with Inkscape (http://www.inkscape.org/) -->

<svg
   xmlns:dc="http://purl.org/dc/elements/1.1/"
   xmlns:cc="http://creativecommons.org/ns#"
   xmlns:rdf="http://www.w3.org/1999/02/22-rdf-syntax-ns#"
   xmlns:svg="http://www.w3.org/2000/svg"
   xmlns="http://www.w3.org/2000/svg"
   xmlns:sodipodi="http://sodipodi.sourceforge.net/DTD/sodipodi-0.dtd"
   xmlns:inkscape="http://www.inkscape.org/namespaces/inkscape"
   id="svg4681"
   version="1.1"
   inkscape:version="0.91 r13725"
   width="54.363262"
   height="60.927639"
   viewBox="0 0 54.363263 60.927639"
   sodipodi:docname="github.svg">
  <metadata
     id="metadata4687">
    <rdf:RDF>
      <cc:Work
         rdf:about="">
        <dc:format>image/svg+xml</dc:format>
        <dc:type
           rdf:resource="http://purl.org/dc/dcmitype/StillImage" />
        <dc:title></dc:title>
      </cc:Work>
    </rdf:RDF>
  </metadata>
  <defs
     id="defs4685" />
  <sodipodi:namedview
     pagecolor="#ff0200"
     bordercolor="#666666"
     borderopacity="1"
     objecttolerance="10"
     gridtolerance="10"
     guidetolerance="10"
     inkscape:pageopacity="0"
     inkscape:pageshadow="2"
     inkscape:window-width="1920"
     inkscape:window-height="1021"
     id="namedview4683"
     showgrid="false"
     fit-margin-top="0"
     fit-margin-left="0"
     fit-margin-right="0"
     fit-margin-bottom="0"
     inkscape:zoom="8"
     inkscape:cx="8.5027909"
     inkscape:cy="36.573332"
     inkscape:window-x="-8"
     inkscape:window-y="-8"
     inkscape:window-maximized="1"
     inkscape:current-layer="svg4681" />
  <path
     style="fill:#ffffff;fill-opacity:1;stroke:none"
     d="m 40.931372,60.927639 c -0.67287,-6.64e-4 -1.32388,-0.37229 -1.68262,-0.96068 -0.25355,-0.415852 -0.2638,-0.68055 -0.26428,-6.825819 -3.9e-4,-5.124384 -0.0399,-6.599303 -0.1992,-7.431739 -0.37196,-1.944075 -0.76816,-2.838019 -2.01113,-4.537722 -0.19285,-0.263715 -0.19834,-0.327296 -0.037,-0.429382 0.10414,-0.06591 0.36855,-0.121265 0.58757,-0.123018 0.68641,-0.0055 4.19175,-0.76516 5.49336,-1.190504 7.92041,-2.588269 11.87103,-8.998989 11.52417,-18.700412 -0.13373,-3.740389 -1.06058,-6.430831 -3.1399,-9.114387 -0.33941,-0.438053 -0.65977,-0.866974 -0.71189,-0.953156 -0.0521,-0.08618 0.0406,-0.623792 0.20603,-1.1946899 0.26532,-0.915541 0.30029,-1.327705 0.29645,-3.493747 -0.004,-2.528614 -0.1167,-3.26269 -0.79082,-5.17335197 -0.25711,-0.728729 -0.35944,-0.795525 -1.22263,-0.79806700015 -2.2552,-0.0066 -5.35371,1.22948997015 -9.27917,3.70186297015 l -0.6775,0.426709 -1.05224,-0.268661 c -1.66886,-0.426099 -4.11038,-0.784339 -6.5438,-0.960164 -3.36952,-0.243461 -7.19465,0.06633 -10.77352,0.87253 l -1.4431,0.325083 -1.42944,-0.876969 C 14.614656,1.2789721 11.812974,0.18493713 9.6298245,0.03849813 c -1.102652,-0.07396 -1.154053,-0.06482 -1.352326,0.240448 -0.49406,0.76067497 -1.149615,4.01648597 -1.151115,5.71701697 -0.0011,1.157159 0.223304,2.740102 0.526252,3.713477 l 0.241953,0.7773949 -0.905289,1.217157 c -2.516044,3.382812 -3.47261,7.111632 -3.057522,11.918619 0.874592,10.128312 5.810163,15.268055 16.2608245,16.933496 0.72557,0.115629 1.36879,0.240868 1.42937,0.278311 0.0606,0.03744 -0.0931,0.305557 -0.34156,0.595809 -0.70413,0.822611 -1.26742,1.998288 -1.59892,3.337178 -0.30379,1.226951 -0.3039,1.227139 -0.90757,1.533382 -0.75298,0.381982 -2.826146,0.818734 -3.882835,0.81799 -2.77451,-0.002 -5.0936515,-1.353886 -6.7851345,-3.955354 -1.925412,-2.961251 -4.301165,-4.51577 -6.694699,-4.380523 -0.71671502,0.0405 -0.98689602,0.114914 -1.20345302,0.331472 -0.252241,0.252241 -0.261804,0.315368 -0.09887,0.652691 0.09921,0.205393 0.49425,0.61537 0.877864,0.911063 0.38361502,0.295691 1.01082702,0.780114 1.39380502,1.076495 1.172933,0.907717 2.008474,2.074686 3.178288,4.439001 0.969552,1.959567 1.182539,2.289049 2.022106,3.128126 1.364629,1.363831 2.7053895,2.053923 4.8962025,2.520081 1.179798,0.251037 3.804214,0.245817 5.385986,-0.01071 0.68554,-0.111179 1.27254,-0.176047 1.30443,-0.14415 0.0319,0.0319 0.0684,1.84047 0.081,4.01905 l 0.023,3.961056 -0.3184,0.446435 c -0.34294,0.480829 -0.770865,0.740276 -1.365376,0.784395 M 14.743594,48.854042 c -0.681973,-0.282517 -0.378309,-1.0675 0.412952,-1.0675 0.408678,0 0.862832,0.328828 0.862832,0.62473 0,0.35717 -0.806637,0.637119 -1.275784,0.44277 z m 2.811818,-0.479636 c -0.28841,-0.288408 -0.26094,-0.536148 0.0864,-0.779452 0.55908,-0.391594 1.29789,-0.196144 1.29789,0.343354 0,0.526991 -0.98357,0.836844 -1.38432,0.436098 z m -6.141465,-0.247962 c -0.306191,-0.266212 -0.34645,-0.36657 -0.226314,-0.56416 0.287266,-0.472465 1.211749,-0.338935 1.509855,0.218082 0.101566,0.189776 0.08332,0.305426 -0.07281,0.461559 -0.301862,0.301862 -0.783552,0.255919 -1.210731,-0.115481 z M 8.8312145,46.592253 c -0.426868,-0.42687 -0.452375,-0.746298 -0.07839,-0.981749 0.322269,-0.202891 0.916682,0.142727 1.089214,0.63332 0.10888,0.309597 0.08771,0.405848 -0.123177,0.560052 -0.354698,0.259362 -0.436058,0.239966 -0.887647,-0.211623 z m -1.886579,-2.191452 c -0.327769,-0.327769 -0.399463,-0.736766 -0.169468,-0.966761 0.433639,-0.433639 1.206802,0.340338 0.966232,0.967249 -0.09854,0.256799 -0.539749,0.256528 -0.796764,-5.31e-4 z m -1.601616,-2.265334 c -0.294659,-0.294658 -0.218553,-0.776058 0.130585,-0.826007 0.334634,-0.04787 0.762742,0.396259 0.699858,0.726056 -0.06115,0.320694 -0.55077,0.379624 -0.830443,0.09995 z m -1.569217,-1.525915 c -0.268017,-0.158164 -0.311048,-0.60555 -0.06637,-0.690046 0.312648,-0.10797 0.777586,0.201065 0.736166,0.489314 -0.04508,0.31372 -0.332411,0.399831 -0.669796,0.200732 z"
     id="path4691"
     inkscape:connector-curvature="0"
     sodipodi:nodetypes="csscscsssccccscscssscssscscsssccsscsssssssssscccccssssccsccsssssssssscscccscssssss" />
</svg>

