<?xml version="1.0" encoding="UTF-8" standalone="no"?>
<!-- Created with Inkscape (http://www.inkscape.org/) -->

<svg
   xmlns:dc="http://purl.org/dc/elements/1.1/"
   xmlns:cc="http://creativecommons.org/ns#"
   xmlns:rdf="http://www.w3.org/1999/02/22-rdf-syntax-ns#"
   xmlns:svg="http://www.w3.org/2000/svg"
   xmlns="http://www.w3.org/2000/svg"
   xmlns:sodipodi="http://sodipodi.sourceforge.net/DTD/sodipodi-0.dtd"
   xmlns:inkscape="http://www.inkscape.org/namespaces/inkscape"
   id="svg3048"
   version="1.1"
   inkscape:version="0.91 r13725"
   width="139.99525"
   height="161.12408"
   sodipodi:docname="git.svg">
  <metadata
     id="metadata3054">
    <rdf:RDF>
      <cc:Work
         rdf:about="">
        <dc:format>image/svg+xml</dc:format>
        <dc:type
           rdf:resource="http://purl.org/dc/dcmitype/StillImage" />
        <dc:title></dc:title>
      </cc:Work>
    </rdf:RDF>
  </metadata>
  <defs
     id="defs3052" />
  <sodipodi:namedview
     pagecolor="#ff0000"
     bordercolor="#666666"
     borderopacity="1"
     objecttolerance="10"
     gridtolerance="10"
     guidetolerance="10"
     inkscape:pageopacity="0"
     inkscape:pageshadow="2"
     inkscape:window-width="1920"
     inkscape:window-height="1021"
     id="namedview3050"
     showgrid="false"
     inkscape:zoom="0.921875"
     inkscape:cx="-90"
     inkscape:cy="78.411272"
     inkscape:window-x="-8"
     inkscape:window-y="-8"
     inkscape:window-maximized="1"
     inkscape:current-layer="svg3048"
     fit-margin-top="0"
     fit-margin-left="0"
     fit-margin-right="0"
     fit-margin-bottom="0"
     showborder="false" />
  <path
     style="fill:#ffffff"
     d="m 55.5,160.63274 c -12.46668,-1.59887 -24.747882,-6.46757 -29.629375,-11.74612 -3.143773,-3.39949 -4.077048,-6.28812 -6.864859,-21.24777 -1.866682,-10.01679 -1.94701,-11.58281 -0.660142,-12.86968 1.286867,-1.28686 2.176337,-1.03521 7.309763,2.06809 13.087195,7.91157 28.723383,11.21501 49.344613,10.42496 17.63184,-0.67551 25.71992,-2.97098 42.48569,-12.05783 2.46903,-1.33819 3.21351,-1.39039 4.30223,-0.30167 1.08872,1.08871 0.84844,3.79131 -1.38854,15.61788 -2.35404,12.44549 -3.0953,14.74579 -5.71221,17.72628 -6.7436,7.68054 -21.18013,12.27843 -40.18717,12.79919 -7.15,0.1959 -15.7,0.01 -19,-0.41333 z m -5,-46.55622 C 40.033419,112.41631 34.86315,110.95176 27.187051,107.47284 18.918731,103.72551 13.386603,99.25311 12.08383,95.26276 10.620684,90.7812 0,27.412787 0,23.164473 0,14.087492 13.910834,6.430645 38.556576,1.942035 52.66356,-0.62720198 87.47714,-0.65221798 101.30039,1.896945 c 11.11448,2.049637 25.18497,6.547203 30.22221,9.660385 5.10305,3.153859 8.47812,7.660279 8.47265,11.312759 -0.006,4.089009 -10.69512,68.148861 -12.07905,72.390551 -1.36536,4.18475 -5.39021,7.48559 -14.24105,11.67932 -16.19003,7.67121 -41.6633,10.54879 -63.17515,7.13656 z M 81.85198,96.26002 C 95.42073,87.28065 95.27465,67.410459 81.57842,59.048239 77.40839,56.502229 75.6403,56.043369 70,56.043369 c -9.1356,0 -15.31367,3.66967 -19.25,11.43418 -5.8314,11.50259 -1.7954,24.279861 9.47748,30.004051 6.15751,3.12669 15.88411,2.57723 21.6245,-1.22158 z M 63.11073,85.98309 C 57.4305,81.20349 58.0958,72.285519 64.42031,68.428839 66.11414,67.395939 68.625,66.550849 70,66.550849 c 3.67407,0 8.47496,3.31076 9.94411,6.85758 C 82.91335,80.57683 77.67909,88.54337 70,88.54337 c -2.66818,0 -4.77867,-0.78433 -6.88927,-2.56028 z m 38.68885,-58.843694 c 11.69824,-2.96365 15.25163,-6.550695 9.93812,-10.032241 -5.92378,-3.881406 -33.73761,-7.124412 -51.67494,-6.025137 -12.57174,0.770448 -28.26138,3.706246 -31.640804,5.920529 -6.702754,4.391813 0.253027,8.82005 18.078044,11.508969 9.65972,1.457177 47.87445,0.508974 55.29958,-1.37212 z"
     id="path3060"
     inkscape:connector-curvature="0" />
</svg>

