<?xml version="1.0" encoding="UTF-8" standalone="no"?>
<!-- Generator: Adobe Illustrator 19.0.0, SVG Export Plug-In . SVG Version: 6.00 Build 0)  -->

<svg
   xmlns:dc="http://purl.org/dc/elements/1.1/"
   xmlns:cc="http://creativecommons.org/ns#"
   xmlns:rdf="http://www.w3.org/1999/02/22-rdf-syntax-ns#"
   xmlns:svg="http://www.w3.org/2000/svg"
   xmlns="http://www.w3.org/2000/svg"
   xmlns:sodipodi="http://sodipodi.sourceforge.net/DTD/sodipodi-0.dtd"
   xmlns:inkscape="http://www.inkscape.org/namespaces/inkscape"
   version="1.1"
   id="Layer_1"
   x="0px"
   y="0px"
   viewBox="0 0 349.71857 184.27232"
   xml:space="preserve"
   inkscape:version="0.91 r13725"
   sodipodi:docname="pcmr2.svg"
   width="349.71857"
   height="184.27232"><metadata
     id="metadata41"><rdf:RDF><cc:Work
         rdf:about=""><dc:format>image/svg+xml</dc:format><dc:type
           rdf:resource="http://purl.org/dc/dcmitype/StillImage" /><dc:title></dc:title></cc:Work></rdf:RDF></metadata><defs
     id="defs39" /><sodipodi:namedview
     pagecolor="white"
     bordercolor="#666666"
     borderopacity="1"
     objecttolerance="10"
     gridtolerance="10"
     guidetolerance="10"
     inkscape:pageopacity="0"
     inkscape:pageshadow="2"
     inkscape:window-width="1920"
     inkscape:window-height="1017"
     id="namedview37"
     showgrid="false"
     inkscape:zoom="2"
     inkscape:cx="148.30885"
     inkscape:cy="2.5090609"
     inkscape:window-x="-8"
     inkscape:window-y="-8"
     inkscape:window-maximized="1"
     inkscape:current-layer="Layer_1"
     fit-margin-top="0"
     fit-margin-left="0"
     fit-margin-right="0"
     fit-margin-bottom="0" /><style
     type="text/css"
     id="style3">
	.st0{fill:#040304;}
	.st1{fill:#FFFFFF;}
	.st2{fill:#E49F01;}
</style><g
     id="g5"
     transform="translate(-190.28144,-40.060612)"><path
       class="st1"
       d="m 255.8,96.9 c -1.6,-0.1 -3,-0.3 -4.4,-0.4 -1.9,-0.1 -3.8,0.3 -5.5,1.2 -4.9,2.5 -9.5,5.4 -13.8,8.7 -7.6,5.8 -15,11.8 -22,18.3 -2.3,2.1 -4.6,4.2 -7.2,6.1 -0.4,0.3 -1,0.6 -1.4,0.9 -1.3,1.2 -2.7,1 -4.1,0.2 -4.2,-2.4 -6.6,-6 -7.1,-10.8 -0.1,-1 0.2,-1.9 1,-2.5 1.1,-0.9 2.2,-1.8 3.3,-2.7 1.1,-1 2.3,-1.9 3.4,-2.9 3.9,-3.6 3.6,-8.8 1.1,-12.2 -0.8,-1.1 -1.7,-2.1 -2.7,-3.1 -1,-1 -2.1,-2 -3,-3.1 -0.9,-1 -1.7,-2 -2.4,-3.1 -0.9,-1.4 -0.8,-2.9 0,-4.2 0.5,-0.8 1.2,-1.5 1.8,-2.2 3.1,-3.3 6.6,-6.2 10,-9 7.5,-6.3 15.4,-12.1 23.3,-18 3.5,-2.6 7,-5.2 10.4,-7.9 3.1,-2.5 6.5,-4.2 10.4,-5.1 4.2,-1 8.5,-2 12.8,-2.9 3.9,-0.8 7.8,-1.5 11.7,-1.9 2.9,-0.3 5.7,-0.3 8.6,-0.1 1.1,0.1 2.3,0.5 3.3,0.9 1.9,0.7 3.7,1.8 5.2,3.1 1.8,1.5 3.5,3.1 5.2,4.6 1.6,1.4 3.1,2.9 4.6,4.3 1.5,1.3 3.1,2.4 4.8,3.5 1.5,0.9 3,1.2 4.7,1 3.4,-0.5 6.9,-1 10.3,-1.8 4.6,-1.1 9.2,-2.2 13.7,-3.2 1.6,-0.4 3.2,-0.7 4.8,-0.9 2,-0.3 3.9,0 5.9,0.5 3.3,0.9 6.4,2.2 9.5,3.7 6.8,3.2 13,7.1 19.1,11.5 6.3,4.6 12.3,9.5 18.2,14.5 10.3,8.7 20.6,17.5 31.2,25.9 9.5,7.5 19.3,14.7 29.7,21 6.6,4.1 13.5,7.7 20.7,10.6 2.7,1.1 5.5,1.9 8.4,2.7 20.3,5.3 38.8,14.3 55,27.7 1.6,1.3 3.2,2.8 4.8,4.2 0.3,0.3 0.6,0.6 0.9,0.9 -0.4,0.6 -0.9,0.8 -1.4,1.1 -1.5,0.8 -3.2,1.1 -4.9,1.3 -0.6,0.1 -1.2,0.1 -1.8,0.1 -5.2,0.5 -10.5,1 -15.7,1.6 -6.3,0.8 -12.5,1.9 -18.7,3.4 -2.5,0.6 -5,0.9 -7.5,1.1 -8.5,0.7 -17,0.4 -25.6,0.4 -4.2,0 -8.5,-0.1 -12.7,-0.1 -0.7,0 -1.3,0 -2,0.1 -0.5,1.1 -0.4,2.2 -0.4,3.4 0.5,0.2 0.9,0.5 1.4,0.7 4.4,1.8 9,3 13.7,4.1 1.9,0.5 3.9,0.9 5.8,1.3 0.5,0.1 1,0.3 1.6,0.4 -1.8,2.4 -4.3,4.2 -6.9,4.9 -5,1.2 -10.1,2.1 -15.3,2.5 -3.9,0.3 -7.9,0.5 -11.8,0.8 -2.1,0.1 -4.2,0.3 -6.3,0.5 -5.6,0.5 -11.2,0.6 -16.8,0.3 -3.9,-0.2 -7.6,-1 -11,-2.7 -1.2,-0.6 -2.5,-1.1 -3.7,-1.8 -4,-2.1 -8.2,-3.3 -12.6,-4.1 -4,-0.7 -7.9,-1.3 -11.8,-2.4 -1.6,-0.5 -3.2,-1.1 -4.8,-1.7 -1,-0.4 -1.9,-1 -2.7,-1.8 -0.8,-0.8 -1.5,-1.6 -2.2,-2.4 -0.9,-0.9 -1.8,-1.9 -2.7,-2.8 -1.3,-1.3 -2.9,-2.3 -4.6,-2.9 -3.1,-1.2 -6.4,-1.8 -9.7,-2.3 -2.1,-0.4 -4.3,-0.8 -6.4,-1.2 -1.9,-0.3 -3.1,-1.6 -3.9,-3.2 -0.6,-1.2 -0.8,-2.6 -0.9,-4 -0.3,-6.9 0.2,-13.8 1.9,-20.5 1.2,-5 2.4,-10.1 3.7,-15.1 0.1,-0.5 0.2,-0.9 0.3,-1.4 0.8,-3.2 0.2,-6.1 -1.5,-8.8 -1.6,-2.6 -3.7,-4.6 -6.2,-6.1 -5,-3 -10.2,-5.4 -16,-6.6 -3.5,-0.7 -7,-1 -10.6,-0.2 -1.7,0.4 -3.3,0.9 -4.9,1.4 -4.7,1.5 -9.5,3.1 -14.2,4.5 -4.5,1.3 -9,1.9 -13.7,1.9 -3.5,0 -6.5,-1.3 -9.2,-3.5 -1.8,-1.5 -3.4,-3.2 -4.6,-5.2 -1.3,-2.1 -2.5,-4.2 -3.6,-6.4 -1.2,-2.4 -2.2,-4.4 -3.3,-6.6 z"
       id="path21"
       inkscape:connector-curvature="0"
       style="fill:white" /><path
       class="st2"
       d="m 249.7,107.8 c 0.4,0.7 0.8,1.3 1.2,2 1.8,3.1 3.7,6.1 6,8.8 1,1.1 2,2.2 3.1,3.2 4.2,3.9 9.1,5.8 14.8,6.2 5.8,0.4 11.4,-0.3 17,-1.9 5,-1.4 9.9,-3 14.9,-4.5 0.9,-0.3 1.8,-0.5 2.7,-0.8 2.5,-0.9 5.1,-0.9 7.7,-0.5 5.4,0.8 10.2,3 14.4,6.4 1,0.8 1.5,1.8 1.5,3.1 -0.1,3.1 -0.6,6.2 -1.4,9.3 -0.9,3.7 -1.9,7.4 -2.8,11.1 -0.4,1.7 -0.5,3.4 -0.6,5.1 -0.3,3.3 -0.5,6.7 -0.6,10 -0.1,3.3 0.1,6.6 1,9.7 0.3,1.1 0.8,2.2 1.3,3.2 1.9,3.9 4.9,6.5 9.1,7.6 2.2,0.6 4.4,0.9 6.6,1.1 1.1,0.1 2.2,0.2 3.4,0.4 -0.2,0.6 -0.4,1 -0.6,1.4 -3.4,6.4 -7.9,12 -13.2,16.8 -8.5,7.7 -18.1,13.3 -29.2,16.4 -6.9,1.9 -13.9,2.6 -21.1,2.4 -6,-0.2 -11.8,-1.1 -17.5,-2.8 -8.2,-2.3 -15.6,-6.2 -22.3,-11.3 -14,-10.7 -22.8,-24.7 -26.6,-41.9 -1.5,-6.8 -1.8,-13.8 -1.1,-20.8 0.6,-5.7 1.9,-11.1 3.8,-16.5 0.9,-2.6 2.4,-4.9 4.5,-6.7 5.3,-4.6 10.7,-9.1 16.6,-12.9 2,-1.2 4.1,-2.2 6.1,-3.3 0.4,-0.2 0.9,-0.2 1.3,-0.3 z m 39.4,46.5 c -0.6,2.4 -1.3,4.7 -1.7,7 -0.4,1.8 -0.4,3.7 0.1,5.5 1.4,4.9 4.4,8.4 9,10.6 3.3,1.5 6.7,1.7 10.2,0.7 5.2,-1.5 10.5,-6.6 11.3,-13.7 0.1,-0.9 -0.1,-1.6 -0.7,-2.3 -0.6,-0.6 -1.1,-1.2 -1.7,-1.7 -1.2,-1 -2.6,-1.7 -4.1,-2.2 -3,-1 -5.9,-2.1 -8.9,-3 -1.7,-0.5 -3.4,-0.9 -5.2,-1.2 -2.8,-0.5 -5.5,-0.5 -8.3,0.3 z m -36.2,-6 c -4.3,-2.3 -8.3,-4.7 -12.7,-6.5 -1.3,-0.5 -2.5,-1 -3.8,-1.4 -2.7,-0.8 -5.4,-1.2 -8.3,-1.1 -1.1,0 -1.9,0.4 -2.7,1.2 -2,2.1 -3.1,4.6 -3.3,7.5 -0.3,5 1.6,9.2 5.1,12.7 1.9,1.9 4.3,3.1 7,3.5 2.1,0.3 4.2,0.3 6.3,0 2.7,-0.4 5,-1.6 7,-3.6 3.4,-3.3 5.2,-7.4 5.4,-12.3 z"
       id="path23"
       style="fill:white;fill-opacity:1"
       inkscape:connector-curvature="0" /></g></svg>