<?xml version="1.0" encoding="UTF-8" standalone="no"?>
<!-- Created with Inkscape (http://www.inkscape.org/) -->

<svg
   xmlns:dc="http://purl.org/dc/elements/1.1/"
   xmlns:cc="http://creativecommons.org/ns#"
   xmlns:rdf="http://www.w3.org/1999/02/22-rdf-syntax-ns#"
   xmlns:svg="http://www.w3.org/2000/svg"
   xmlns="http://www.w3.org/2000/svg"
   xmlns:sodipodi="http://sodipodi.sourceforge.net/DTD/sodipodi-0.dtd"
   xmlns:inkscape="http://www.inkscape.org/namespaces/inkscape"
   width="105"
   height="150"
   id="svg3007"
   version="1.1"
   inkscape:version="0.91 r13725"
   sodipodi:docname="resume.svg">
  <defs
     id="defs3009" />
  <sodipodi:namedview
     id="base"
     pagecolor="#ff0000"
     bordercolor="#666666"
     borderopacity="1.0"
     inkscape:pageopacity="0"
     inkscape:pageshadow="2"
     inkscape:zoom="2.59"
     inkscape:cx="-22.934363"
     inkscape:cy="78.120142"
     inkscape:document-units="px"
     inkscape:current-layer="layer1"
     showgrid="false"
     showguides="true"
     inkscape:window-width="1920"
     inkscape:window-height="1017"
     inkscape:window-x="-8"
     inkscape:window-y="-8"
     inkscape:window-maximized="1"
     fit-margin-top="0"
     fit-margin-left="0"
     fit-margin-right="0"
     fit-margin-bottom="0">
    <inkscape:grid
       type="xygrid"
       id="grid3021"
       empspacing="5"
       visible="true"
       enabled="true"
       snapvisiblegridlinesonly="true"
       originx="-25"
       originy="-25" />
  </sodipodi:namedview>
  <metadata
     id="metadata3012">
    <rdf:RDF>
      <cc:Work
         rdf:about="">
        <dc:format>image/svg+xml</dc:format>
        <dc:type
           rdf:resource="http://purl.org/dc/dcmitype/StillImage" />
        <dc:title></dc:title>
      </cc:Work>
    </rdf:RDF>
  </metadata>
  <g
     inkscape:label="Layer 1"
     inkscape:groupmode="layer"
     id="layer1"
     transform="translate(-25,-877.36218)"
     style="opacity:1">
    <path
       style="fill:white;fill-opacity:1;stroke:none"
       d="m 10,10 0,150 105,0 0,-115 -35,0 0,-35 -70,0 z m 49.382812,51.992188 c 0.464763,-0.02225 1.064473,0.0028 1.660157,0.183593 a 2.7152753,2.7152753 0 0 1 0.0078,0 c 0.930951,0.28333 1.466743,0.682335 2.044922,1.052735 l 0.04492,-0.08984 c 0.124192,0.05857 0.241511,0.231034 0.371094,0.302734 0.03762,0.0241 0.0991,0.04506 0.136719,0.06836 l -0.01367,0.03125 c 0.536617,0.31436 1.102669,0.623867 1.529296,1.242187 0.564155,0.81764 0.762997,1.757612 0.810547,2.544922 0.09501,1.5725 -0.174934,3.029252 -0.439453,5.507813 l 0,0.0078 c -0.432515,4.0933 -2.487772,11.46637 -4.552734,18.4375 0.344976,0.75915 0.429402,1.355173 0.871094,2.189453 l 0,0.0078 c 1.739298,3.26898 4.370648,7.241665 7.597656,11.333985 1.660054,2.10522 3.450831,3.87975 5.265625,5.89258 2.698482,-0.16213 5.377486,-0.20518 7.984375,0 a 2.7152753,2.7152753 0 0 1 0.01563,0 c 2.900676,0.24446 5.720157,0.70745 8.210937,1.31836 l 0.0078,0 c 2.46092,0.59924 4.729894,1.35897 6.802734,2.66601 2.0689,1.29192 3.923799,3.05951 4.962889,5.39453 1.05109,2.32571 1.14172,4.85382 0.10547,7.03711 -1.02997,2.18643 -3.031691,3.37612 -4.863281,3.97657 a 2.7152753,2.7152753 0 0 1 -0.02344,0.008 c -1.84659,0.58375 -4.10622,0.71624 -6.5,0.0156 a 2.7152753,2.7152753 0 0 1 -0.02148,-0.008 c -2.384081,-0.7201 -4.766287,-2.10765 -7.228516,-3.84766 -2.459976,-1.73959 -5.054082,-3.90001 -8.324219,-7.1582 -1.029642,-1.02341 -2.21868,-2.54427 -3.347656,-3.75 -2.270252,0.24338 -4.534244,0.52815 -7.28125,1.0293 -3.393414,0.61662 -7.190901,1.39607 -12.119141,2.83398 l 0,-0.008 c -2.227754,0.65339 -4.584038,1.7489 -7.03125,2.62891 -0.130747,0.19548 -0.256942,0.51894 -0.386718,0.71093 l 0,0.008 c -4.694947,6.95049 -8.742564,11.53383 -12.029297,14.33203 a 2.7152753,2.7152753 0 0 1 0,0.0117 c -3.302403,2.8008 -5.977927,3.7701 -7.771485,4.0664 -0.885359,0.1478 -1.76092,0.23447 -2.78125,-0.082 -1.020333,-0.3163 -1.964537,-1.21651 -2.384765,-2.00781 -0.82047,-1.541 -0.852851,-3.21965 -0.431641,-5.06055 0.411753,-1.8195 1.517352,-4.01289 3.871094,-6.31836 2.365272,-2.30407 6.008925,-4.93413 11.029297,-7.36914 2.166356,-1.05245 4.642428,-1.72193 7.074218,-2.64453 4.226699,-6.46396 8.913221,-14.43901 12.083985,-22.771484 0.59433,-1.56651 0.500684,-2.476059 1,-4.037109 -0.707359,-1.77627 -1.658536,-3.705552 -2.115235,-5.326172 -0.828359,-2.94749 -1.480812,-5.920038 -1.748047,-8.710938 -0.266496,-2.78327 -0.147456,-5.262547 0.126954,-7.273437 0.269464,-1.99316 0.646359,-3.705205 1.667968,-5.234375 a 2.7152753,2.7152753 0 0 1 0.01563,-0.03125 c 1.038353,-1.51152 2.418318,-2.232244 3.392579,-2.589844 0.946787,-0.34764 1.774948,-0.406369 1.855468,-0.417969 l 0,-0.0039 c 0.0525,-0.0083 0.382894,-0.07736 0.847656,-0.09961 z m 0.164063,5.429687 c -0.03949,0.0109 0.008,0.01118 -0.154297,0.03711 -0.648641,0.10355 -0.562967,0.04995 -0.841797,0.152344 -0.245898,0.09029 -0.583425,0.288995 -0.773437,0.552734 -0.197171,0.30012 -0.576868,1.326624 -0.794922,2.939454 -0.222051,1.62722 -0.319859,3.702487 -0.09766,6.023437 0.130224,1.3601 0.581155,3.001114 0.923828,4.558594 0.649816,-3.11586 2.117156,-7.436156 2.326172,-9.416016 0.255335,-2.39541 0.391278,-3.742962 0.392578,-4.294922 -0.505302,-0.291509 -0.970851,-0.532555 -0.980469,-0.552734 z m 1.298828,0.583984 -0.0293,0.04492 c -0.0073,-0.0036 0.01711,0.01181 0.0078,0.0078 l 0.02148,-0.05273 z m -1.992187,30.703125 c -2.484609,6.278556 -5.784169,11.566546 -8.976563,16.929686 0.551045,-0.16938 1.158577,-0.47337 1.689453,-0.6289 a 2.7152753,2.7152753 0 0 1 0.0078,-0.008 c 5.148302,-1.50205 9.1944,-2.32087 12.673828,-2.95312 1.430431,-0.26095 2.600075,-0.35339 3.908203,-0.55274 -1.008756,-1.18297 -2.022365,-2.11821 -2.96875,-3.31836 -2.646407,-3.35606 -4.536702,-6.45125 -6.333984,-9.468746 z m 22.0625,17.390626 c -0.457079,0.0116 -0.915483,0.0292 -1.365235,0.0176 0.03941,0.0392 0.08778,0.10573 0.126953,0.14453 3.106248,3.09491 5.426837,5.01896 7.628907,6.57617 2.18405,1.54336 4.228151,2.64289 5.644531,3.07422 l 0.0078,0 c 1.4076,0.41077 2.335155,0.32635 3.302735,0.0234 0.97055,-0.32065 1.440539,-0.71053 1.636719,-1.12891 a 2.7152753,2.7152753 0 0 1 0.0078,-0.008 c 0.19489,-0.41066 0.279496,-1.52514 -0.152344,-2.47656 a 2.7152753,2.7152753 0 0 1 -0.0078,-0.0234 c -0.42789,-0.96444 -1.529969,-2.15281 -2.886719,-3 a 2.7152753,2.7152753 0 0 1 -0.0078,-0.008 c -1.357699,-0.85814 -3.025997,-1.4527 -5.210937,-1.98438 a 2.7152753,2.7152753 0 0 1 0,-0.008 c -2.18092,-0.53529 -4.7567,-0.96056 -7.371094,-1.18164 -0.441483,-0.0347 -0.896437,-0.0292 -1.353515,-0.0176 z m -45.5,11.33203 c -3.080521,1.74738 -6.044665,3.56588 -7.46875,4.95313 -1.795223,1.76017 -2.169485,2.74351 -2.371094,3.63671 a 2.7152753,2.7152753 0 0 1 0,0.01 c -0.04228,0.1853 -0.0032,0.11243 -0.01563,0.26563 0.944142,-0.2016 2.152861,-0.48181 4.576172,-2.53711 1.297865,-1.1053 3.521398,-4.28089 5.279297,-6.32618 l 0,-0.002 z"
       transform="translate(15,867.36218)"
       id="path3793"
       inkscape:connector-curvature="0" />
    <path
       style="fill:white;fill-opacity:1;fill-rule:evenodd;stroke:none;stroke-width:1px;stroke-linecap:butt;stroke-linejoin:miter;stroke-opacity:1"
       d="m 97,877.36218 0,33 33,0 z"
       id="path4135"
       inkscape:connector-curvature="0"
       sodipodi:nodetypes="cccc" />
  </g>
</svg>
