<?xml version="1.0" encoding="UTF-8" standalone="no"?>
<!-- Created with Inkscape (http://www.inkscape.org/) -->

<svg
   xmlns:dc="http://purl.org/dc/elements/1.1/"
   xmlns:cc="http://creativecommons.org/ns#"
   xmlns:rdf="http://www.w3.org/1999/02/22-rdf-syntax-ns#"
   xmlns:svg="http://www.w3.org/2000/svg"
   xmlns="http://www.w3.org/2000/svg"
   xmlns:sodipodi="http://sodipodi.sourceforge.net/DTD/sodipodi-0.dtd"
   xmlns:inkscape="http://www.inkscape.org/namespaces/inkscape"
   width="272.32516"
   height="314.97256"
   id="svg3971"
   version="1.1"
   inkscape:version="0.91 r13725"
   sodipodi:docname="Twenty_sided_dice.svg">
  <title
     id="title4003">Twenty-Sided Dice</title>
  <defs
     id="defs3973" />
  <sodipodi:namedview
     id="base"
     pagecolor="#ffffff"
     bordercolor="#666666"
     borderopacity="1.0"
     inkscape:pageopacity="0.0"
     inkscape:pageshadow="2"
     inkscape:zoom="4"
     inkscape:cx="131.99801"
     inkscape:cy="185.60552"
     inkscape:document-units="px"
     inkscape:current-layer="layer1"
     showgrid="false"
     inkscape:window-width="2560"
     inkscape:window-height="1377"
     inkscape:window-x="-8"
     inkscape:window-y="-8"
     inkscape:window-maximized="1"
     fit-margin-top="0"
     fit-margin-left="0"
     fit-margin-right="0"
     fit-margin-bottom="0" />
  <metadata
     id="metadata3976">
    <rdf:RDF>
      <cc:Work
         rdf:about="">
        <dc:format>image/svg+xml</dc:format>
        <dc:type
           rdf:resource="http://purl.org/dc/dcmitype/StillImage" />
        <cc:license
           rdf:resource="http://creativecommons.org/publicdomain/zero/1.0/" />
        <dc:title>Twenty-Sided Dice</dc:title>
        <dc:creator>
          <cc:Agent>
            <dc:title>Brian Burger/Wirelizard Design, modified by Kenny Jackson</dc:title>
          </cc:Agent>
        </dc:creator>
        <dc:description>Twenty-sided dice (d20) as used in RPGs and wargaming.</dc:description>
      </cc:Work>
      <cc:License
         rdf:about="http://creativecommons.org/publicdomain/zero/1.0/">
        <cc:permits
           rdf:resource="http://creativecommons.org/ns#Reproduction" />
        <cc:permits
           rdf:resource="http://creativecommons.org/ns#Distribution" />
        <cc:permits
           rdf:resource="http://creativecommons.org/ns#DerivativeWorks" />
      </cc:License>
    </rdf:RDF>
  </metadata>
  <g
     inkscape:label="Layer 1"
     inkscape:groupmode="layer"
     id="layer1"
     transform="translate(-262.13206,-359.59006)">
    <path
       style="fill:#ffffff;fill-opacity:1;stroke:none"
       d="m 395.35197,359.59006 c -28.00433,33.47879 -56.00867,66.95759 -84.013,100.43638 55.3465,-0.14946 110.69299,-0.29892 166.03949,-0.44838 -27.34216,-33.32933 -54.68433,-66.65867 -82.02649,-99.988 z m 15.50404,9.68386 c 24.61867,29.89534 49.23735,59.79068 73.85602,89.68602 14.23228,-6.54124 28.46455,-13.08249 42.69683,-19.62373 -38.85095,-23.3541 -77.7019,-46.70819 -116.55285,-70.06229 z m -33.96442,3.23171 c -35.85472,23.59831 -71.70945,47.19661 -107.56417,70.79492 11.66108,5.28096 23.32216,10.56193 34.98324,15.84289 24.19364,-28.87927 48.38729,-57.75854 72.58093,-86.63781 z m 154.22702,71.82087 c -14.41553,6.58506 -28.83106,13.17012 -43.24659,19.75518 15.5284,39.31415 31.0568,78.62829 46.5852,117.94244 -1.11287,-45.89921 -2.22574,-91.79841 -3.33861,-137.69762 z m -264.77917,4.03508 c -1.40246,43.88346 -2.80492,87.76692 -4.20738,131.65038 13.12765,-38.54231 26.2553,-77.08461 39.38295,-115.62692 -11.72519,-5.34115 -23.45038,-10.68231 -35.17557,-16.02346 z m 43.54664,17.50042 c 28.76266,48.52278 57.52531,97.04556 86.28797,145.56834 27.7234,-48.652 55.4468,-97.304 83.1702,-145.956 -56.48606,0.12922 -112.97211,0.25844 -169.45817,0.38766 z m 173.89886,3.29299 c -27.67545,48.82294 -55.3509,97.64587 -83.02635,146.46881 44.4483,-6.15858 88.8966,-12.31715 133.3449,-18.47573 -16.77285,-42.66436 -33.5457,-85.32872 -50.31855,-127.99308 z m -178.11362,1.18526 c -14.30201,42.13216 -28.60401,84.26433 -42.90602,126.39649 43.045,6.30278 86.09001,12.60555 129.13501,18.90833 -28.743,-48.43494 -57.48599,-96.86988 -86.22899,-145.30482 z m -32.07556,134.00163 c 40.88852,23.19429 81.77705,46.38857 122.66557,69.58286 -0.9428,-17.44093 -1.88561,-34.88186 -2.82841,-52.32279 -39.94572,-5.75336 -79.89144,-11.50671 -119.83716,-17.26007 z m 249.76366,0.121 c -41.34927,5.76601 -82.69854,11.53203 -124.04781,17.29804 0.94508,17.60056 1.89015,35.20113 2.83523,52.80169 40.40419,-23.36658 80.80839,-46.73315 121.21258,-70.09973 z"
       id="path3922"
       inkscape:connector-curvature="0" />
  </g>
</svg>
