<?xml version="1.0" encoding="UTF-8" standalone="no"?>
<!-- Generator: Adobe Illustrator 24.1.1, SVG Export Plug-In . SVG Version: 6.00 Build 0)  -->

<svg
   version="1.1"
   id="Layer_1"
   x="0px"
   y="0px"
   viewBox="0 0 512 512"
   style="enable-background:new 0 0 512 512;"
   xml:space="preserve"
   sodipodi:docname="prompt_1.svg"
   inkscape:version="1.3 (0e150ed6c4, 2023-07-21)"
   xmlns:inkscape="http://www.inkscape.org/namespaces/inkscape"
   xmlns:sodipodi="http://sodipodi.sourceforge.net/DTD/sodipodi-0.dtd"
   xmlns="http://www.w3.org/2000/svg"
   xmlns:svg="http://www.w3.org/2000/svg"><defs
   id="defs2" /><sodipodi:namedview
   id="namedview2"
   pagecolor="#505050"
   bordercolor="#ffffff"
   borderopacity="1"
   inkscape:showpageshadow="0"
   inkscape:pageopacity="0"
   inkscape:pagecheckerboard="1"
   inkscape:deskcolor="#d1d1d1"
   inkscape:zoom="2.2402344"
   inkscape:cx="255.77681"
   inkscape:cy="256"
   inkscape:window-width="2560"
   inkscape:window-height="1361"
   inkscape:window-x="2391"
   inkscape:window-y="-9"
   inkscape:window-maximized="1"
   inkscape:current-layer="Layer_1" />&#10;<g
   id="g2">&#10;	<path
   d="M9.4,118.6L146.7,256L9.4,393.4c-12.5,12.5-12.5,32.8,0,45.3c12.5,12.5,32.8,12.5,45.3,0l160-160c6-6,9.4-14.2,9.4-22.6   c0-8.4-3.4-16.7-9.4-22.6l-160-160c-12.5-12.5-32.8-12.5-45.3,0C-3.1,85.9-3.1,106.1,9.4,118.6L9.4,118.6z"
   id="path1"
   style="fill:#ffffff;fill-opacity:1" />&#10;	<path
   d="M288,448h192c17.7,0,32-14.3,32-32c0-17.7-14.3-32-32-32H288c-17.7,0-32,14.3-32,32C256,433.7,270.3,448,288,448"
   id="path2"
   style="fill:#ffffff;fill-opacity:1" />&#10;</g>&#10;</svg>
